<svg width="732" height="98" viewBox="0 0 732 98" fill="none" xmlns="http://www.w3.org/2000/svg">
    <path d="M189.677 62.3232C189.754 61.0355 189.562 59.746 189.112 58.537C188.662 57.328 187.965 56.2262 187.065 55.3022C186.165 54.3782 185.082 53.6523 183.885 53.171C182.688 52.6897 181.404 52.4636 180.115 52.5072C178.825 52.4772 177.544 52.7119 176.348 53.1968C175.153 53.6817 174.07 54.4065 173.166 55.3264C172.262 56.2463 171.556 57.3418 171.092 58.5452C170.628 59.7487 170.416 61.0344 170.468 62.3232C170.468 64.8704 171.48 67.3134 173.281 69.1146C175.082 70.9157 177.525 71.9276 180.073 71.9276C182.62 71.9276 185.063 70.9157 186.864 69.1146C188.665 67.3134 189.677 64.8704 189.677 62.3232ZM194.627 20.182C194.767 20.3949 194.863 20.6335 194.909 20.884C194.954 21.1344 194.95 21.3915 194.894 21.64C194.839 21.8885 194.735 22.1234 194.587 22.3308C194.439 22.5383 194.252 22.714 194.035 22.8476C188.061 26.7434 182.699 31.506 178.126 36.9793C179.523 36.7339 180.939 36.6206 182.357 36.6408C202.328 37.7832 206.77 52.5918 206.77 62.7463C206.829 66.1904 206.175 69.6094 204.85 72.789C203.525 75.9685 201.558 78.8401 199.071 81.2236C196.584 83.6071 193.632 85.4511 190.399 86.64C187.166 87.8289 183.723 88.337 180.284 88.1325C176.772 88.2557 173.273 87.6569 170.002 86.3732C166.731 85.0895 163.758 83.1483 161.267 80.6695C158.776 78.1908 156.821 75.2273 155.522 71.9624C154.222 68.6976 153.607 65.2008 153.713 61.6885C153.713 35.4984 170.637 18.5319 185.658 9.73139C186.147 9.4684 186.716 9.39637 187.256 9.52925C187.795 9.66214 188.266 9.99048 188.577 10.4507L194.627 20.182ZM237.784 57.0767H246.669C246.938 57.0767 247.197 56.9697 247.387 56.7793C247.578 56.5888 247.685 56.3306 247.685 56.0612V41.0411C247.674 40.8274 247.596 40.6226 247.461 40.456C247.327 40.2893 247.144 40.1693 246.938 40.113C246.731 40.0567 246.512 40.067 246.312 40.1425C246.112 40.218 245.941 40.3548 245.823 40.5333L236.938 55.8074C236.852 55.9478 236.81 56.11 236.815 56.2742C236.82 56.4384 236.873 56.5975 236.968 56.7321C237.062 56.8666 237.193 56.9709 237.346 57.0321C237.498 57.0933 237.665 57.1088 237.826 57.0767H237.784ZM262.959 85.5516C262.959 86.0942 262.746 86.6152 262.366 87.0028C261.987 87.3904 261.47 87.6137 260.928 87.6248H247.388C246.85 87.6248 246.333 87.4108 245.952 87.0299C245.571 86.6491 245.357 86.1325 245.357 85.5939V73.1546H218.321C217.786 73.1438 217.276 72.9264 216.897 72.5478C216.518 72.1693 216.301 71.659 216.29 71.1237V65.0734C216.256 63.728 216.657 62.4076 217.433 61.3077L248.235 11.9738C248.589 11.4545 249.061 11.0265 249.613 10.7249C250.164 10.4234 250.779 10.2569 251.408 10.2391H260.97C261.512 10.2502 262.029 10.4735 262.409 10.8611C262.788 11.2487 263.001 11.7697 263.001 12.3123V57.0767H270.49C270.76 57.0766 271.028 57.1305 271.277 57.2352C271.526 57.3399 271.752 57.4933 271.941 57.6864C272.13 57.8795 272.279 58.1084 272.378 58.3597C272.478 58.611 272.526 58.8797 272.521 59.1499V71.0814C272.526 71.3517 272.478 71.6203 272.378 71.8716C272.279 72.1229 272.13 72.3518 271.941 72.5449C271.752 72.738 271.526 72.8914 271.277 72.9961C271.028 73.1008 270.76 73.1547 270.49 73.1546H263.001L262.959 85.5516ZM344.068 35.3715C344.109 34.0977 343.879 32.8296 343.393 31.6517C342.906 30.4738 342.174 29.4131 341.245 28.5404C340.316 27.6676 339.212 27.0028 338.006 26.5903C336.8 26.1777 335.52 26.0269 334.252 26.1478H323.759C323.475 26.1478 323.195 26.2036 322.933 26.3121C322.671 26.4205 322.433 26.5795 322.233 26.7798C322.032 26.9802 321.873 27.2181 321.765 27.4799C321.657 27.7417 321.601 28.0223 321.601 28.3056V42.5642C321.601 42.8476 321.657 43.1282 321.765 43.39C321.873 43.6518 322.032 43.8897 322.233 44.09C322.433 44.2904 322.671 44.4494 322.933 44.5578C323.195 44.6662 323.475 44.7221 323.759 44.7221H334.717C335.951 44.745 337.177 44.5189 338.322 44.0571C339.467 43.5953 340.507 42.9074 341.38 42.0345C342.253 41.1616 342.941 40.1216 343.403 38.9768C343.864 37.8319 344.09 36.6057 344.068 35.3715ZM347.495 58.4306L360.188 85.8477C360.282 86.0351 360.326 86.2433 360.317 86.4527C360.307 86.662 360.245 86.8654 360.134 87.0436C360.024 87.2218 359.87 87.3688 359.687 87.4705C359.503 87.5722 359.297 87.6253 359.088 87.6248H343.729C343.13 87.6351 342.54 87.4731 342.03 87.1581C341.52 86.8431 341.111 86.3883 340.852 85.8477L329.513 61.4347H321.558V85.5939C321.564 85.8586 321.517 86.1217 321.419 86.3679C321.322 86.6141 321.176 86.8383 320.991 87.0275C320.806 87.2166 320.585 87.3669 320.341 87.4695C320.097 87.572 319.835 87.6248 319.57 87.6248H305.946C305.418 87.6248 304.913 87.4153 304.54 87.0423C304.167 86.6694 303.957 86.1636 303.957 85.6362V11.6354C303.957 11.1079 304.167 10.6021 304.54 10.2292C304.913 9.85628 305.418 9.64676 305.946 9.64676H333.744C355.28 9.64676 361.838 24.7939 361.838 35.3715C361.938 40.1915 360.636 44.9369 358.09 49.0307C355.544 53.1244 351.863 56.3901 347.495 58.4306ZM430 48.53C430 42.7335 427.461 25.1324 409.564 25.1324C391.667 25.1324 389.255 42.7335 389.255 48.53C389.255 54.3265 391.794 72.1392 409.776 72.1392C427.757 72.1392 430.211 54.3265 430.211 48.53H430ZM448.32 48.53C448.32 65.2426 439.224 88.8518 409.776 88.8518C380.328 88.8518 371.146 65.2426 371.146 48.53C371.146 31.8174 380.031 8.46207 409.564 8.46207C439.097 8.46207 448.109 32.4097 448.109 48.6992L448.32 48.53ZM501.547 64.0579C501.547 61.7308 500.447 56.8228 492.789 56.6113H480.688C480.329 56.6113 479.984 56.7539 479.73 57.0078C479.476 57.2617 479.334 57.6061 479.334 57.9652V69.7275C479.334 70.1202 479.49 70.4969 479.768 70.7746C480.045 71.0523 480.422 71.2084 480.815 71.2084H492.535C500.32 71.2084 501.547 65.8349 501.547 64.0579ZM501.547 33.6367C501.547 31.8597 500.32 26.3171 492.535 26.3171H480.815C480.422 26.3171 480.045 26.4731 479.768 26.7508C479.49 27.0285 479.334 27.4052 479.334 27.7979V39.3486C479.334 39.9546 479.575 40.5357 480.003 40.9642C480.431 41.3927 481.013 41.6334 481.619 41.6334H492.789C493.911 41.7214 495.04 41.5751 496.103 41.2038C497.166 40.8324 498.14 40.2442 498.963 39.4763C499.787 38.7085 500.442 37.7778 500.886 36.7434C501.331 35.709 501.556 34.5934 501.547 33.4675V33.6367ZM519.529 63.8887C519.529 74.4663 512.971 87.6248 491.435 87.6248H463.679C463.152 87.6248 462.646 87.4153 462.273 87.0423C461.9 86.6694 461.69 86.1636 461.69 85.6362V11.6354C461.69 11.1079 461.9 10.6021 462.273 10.2292C462.646 9.85628 463.152 9.64676 463.679 9.64676H491.435C512.971 9.64676 519.529 22.8899 519.529 33.4675C519.35 36.6383 518.332 39.7046 516.577 42.3516C514.822 44.9986 512.395 47.131 509.543 48.53C512.553 49.7984 515.112 51.9397 516.892 54.6775C518.672 57.4153 519.59 60.6237 519.529 63.8887ZM587.733 48.3608C587.733 42.5642 585.194 25.0477 567.297 25.0477C549.4 25.0477 546.734 42.6065 546.734 48.3608C546.734 54.115 549.315 71.8853 567.297 71.8853C585.279 71.8853 587.733 54.115 587.733 48.3608ZM605.842 48.3608C605.842 64.9887 596.745 88.5133 567.297 88.5133C537.849 88.5133 528.625 64.9887 528.625 48.3608C528.625 31.7328 537.764 8.46207 567.297 8.46207C596.83 8.46207 605.842 32.3251 605.842 48.53V48.3608ZM628.055 26.3594H609.734C609.207 26.3594 608.701 26.1498 608.328 25.7769C607.955 25.404 607.746 24.8982 607.746 24.3708V11.6777C607.746 11.1503 607.955 10.6445 608.328 10.2715C608.701 9.89859 609.207 9.68907 609.734 9.68907H664.484C665.011 9.68907 665.517 9.89859 665.89 10.2715C666.263 10.6445 666.473 11.1503 666.473 11.6777V24.3708C666.478 24.6355 666.431 24.8986 666.334 25.1448C666.236 25.3909 666.091 25.6152 665.905 25.8043C665.72 25.9935 665.499 26.1438 665.255 26.2464C665.011 26.3489 664.749 26.4017 664.484 26.4017H645.952V85.6362C645.952 86.1636 645.743 86.6694 645.37 87.0423C644.997 87.4153 644.491 87.6248 643.963 87.6248H630.043C629.516 87.6248 629.01 87.4153 628.637 87.0423C628.264 86.6694 628.055 86.1636 628.055 85.6362V26.4017V26.3594ZM731.25 64.4387C731.25 77.978 719.445 88.5133 702.479 88.5133C692.337 88.4874 682.367 85.8967 673.496 80.982C673.025 80.746 672.667 80.3328 672.5 79.8331C672.334 79.3333 672.372 78.7879 672.608 78.3165L678.7 67.0196C678.813 66.7828 678.972 66.5706 679.168 66.3955C679.363 66.2203 679.591 66.0856 679.839 65.9991C680.087 65.9125 680.349 65.8759 680.611 65.8913C680.873 65.9067 681.13 65.9738 681.366 66.0888C687.708 69.4032 694.664 71.3763 701.802 71.8853C707.598 71.8853 712.464 69.0928 712.464 65.2003C712.464 60.3346 706.456 58.2191 699.136 55.892C687.924 52.2533 673.75 47.8953 673.75 31.9443C673.792 16.9241 684.581 8.46207 699.475 8.46207C709.264 8.58088 718.909 10.8334 727.738 15.0625C728.226 15.3168 728.6 15.7445 728.788 16.2614C728.976 16.7783 728.964 17.3468 728.753 17.855L723.507 29.2788C723.285 29.7644 722.881 30.1432 722.382 30.3332C721.884 30.5233 721.33 30.5093 720.841 30.2942C714.359 27.6859 707.532 26.0327 700.575 25.3862C695.921 25.3862 691.563 26.8248 691.69 31.0558C691.816 35.2868 699.898 37.9101 708.614 41.0411C719.403 44.8067 731.292 50.1378 731.292 64.3118" fill="white"/>
    <path d="M113.011 23.5669V8.46207C113.011 6.21779 112.119 4.06543 110.533 2.47848C108.946 0.891538 106.793 0 104.549 0L23.7784 0C21.5341 0 19.3818 0.891538 17.7948 2.47848C16.2079 4.06543 15.3164 6.21779 15.3164 8.46207V23.5669C15.3164 24.3524 15.0043 25.1057 14.4489 25.6611C13.8935 26.2166 13.1401 26.5286 12.3546 26.5286H5.07724C3.73068 26.5286 2.43926 27.0635 1.48709 28.0157C0.534922 28.9679 0 30.2593 0 31.6058L0 65.4541C0 66.8007 0.534922 68.0921 1.48709 69.0443C2.43926 69.9965 3.73068 70.5314 5.07724 70.5314H12.3546C13.1401 70.5314 13.8935 70.8434 14.4489 71.3989C15.0043 71.9543 15.3164 72.7076 15.3164 73.4931V88.5979C15.3164 90.8422 16.2079 92.9946 17.7948 94.5815C19.3818 96.1685 21.5341 97.06 23.7784 97.06H104.549C106.793 97.06 108.946 96.1685 110.533 94.5815C112.119 92.9946 113.011 90.8422 113.011 88.5979V73.3662C113.011 72.5807 113.323 71.8274 113.878 71.2719C114.434 70.7165 115.187 70.4045 115.973 70.4045H123.25C124.473 70.4045 125.646 69.9186 126.511 69.0537C127.376 68.1888 127.862 67.0158 127.862 65.7926V31.1404C127.862 29.9173 127.376 28.7443 126.511 27.8794C125.646 27.0145 124.473 26.5286 123.25 26.5286H115.973C115.187 26.5286 114.434 26.2166 113.878 25.6611C113.323 25.1057 113.011 24.3524 113.011 23.5669ZM16.3741 60.9269H12.1431C11.1515 60.8833 10.2152 60.4585 9.5293 59.7411C8.84345 59.0237 8.46111 58.0692 8.46207 57.0767V39.8564C8.46207 38.8352 8.86772 37.8559 9.58978 37.1338C10.3118 36.4118 11.2912 36.0061 12.3123 36.0061H16.5434L16.3741 60.9269ZM97.3139 87.4555H30.9289C29.3203 87.4556 27.777 86.8195 26.6356 85.686C25.4942 84.5526 24.8474 83.0137 24.8362 81.4052V15.5279C24.8474 13.9194 25.4942 12.3805 26.6356 11.247C27.777 10.1136 29.3203 9.47748 30.9289 9.47752H97.3139C98.9185 9.47752 100.457 10.115 101.592 11.2496C102.727 12.3843 103.364 13.9232 103.364 15.5279V81.4052C103.364 82.1997 103.208 82.9865 102.904 83.7205C102.6 84.4546 102.154 85.1216 101.592 85.6834C101.03 86.2453 100.363 86.6909 99.6292 86.995C98.8952 87.299 98.1084 87.4555 97.3139 87.4555ZM115.465 60.9269H111.826V36.0061H115.465C116.486 36.0061 117.465 36.4118 118.188 37.1338C118.91 37.8559 119.315 38.8352 119.315 39.8564V57.0767C119.315 58.0833 118.921 59.0501 118.218 59.7697C117.514 60.4894 116.556 60.9048 115.55 60.9269H115.465Z" fill="white"/>
    <path d="M64.1425 73.3662C66.4428 73.3773 68.7228 72.9353 70.8522 72.0653C72.9817 71.1953 74.919 69.9143 76.5534 68.2956C78.1878 66.6769 79.4874 64.7521 80.3779 62.6312C81.2685 60.5102 81.7325 58.2346 81.7436 55.9343H46.5414C46.5638 60.5726 48.4249 65.0127 51.7167 68.2806C55.0084 71.5485 59.4618 73.3775 64.1002 73.3662" fill="white"/>
    <path d="M89.0633 35.8369C89.0717 37.2864 88.6495 38.7057 87.8503 39.9149C87.0511 41.1242 85.9109 42.069 84.5742 42.6295C83.2374 43.19 81.7644 43.341 80.3417 43.0634C78.9191 42.7857 77.6109 42.092 76.5829 41.07C75.555 40.048 74.8537 38.7439 74.5678 37.3228C74.2819 35.9018 74.4244 34.4279 74.9771 33.0879C75.5299 31.748 76.468 30.6023 77.6726 29.7961C78.8773 28.9899 80.2941 28.5595 81.7436 28.5595C82.7028 28.5539 83.6537 28.738 84.5415 29.1013C85.4294 29.4645 86.2366 29.9997 86.9169 30.676C87.5971 31.3523 88.137 32.1564 88.5053 33.0421C88.8737 33.9278 89.0633 34.8776 89.0633 35.8369ZM53.8611 35.8369C53.8694 37.2864 53.4473 38.7057 52.6481 39.9149C51.8489 41.1242 50.7087 42.069 49.3719 42.6295C48.0352 43.19 46.5621 43.341 45.1395 43.0634C43.7168 42.7857 42.4086 42.092 41.3807 41.07C40.3528 40.048 39.6515 38.7439 39.3656 37.3228C39.0797 35.9018 39.2222 34.4279 39.7749 33.0879C40.3277 31.748 41.2658 30.6023 42.4704 29.7961C43.675 28.9899 45.0919 28.5595 46.5414 28.5595C47.4986 28.5539 48.4475 28.7383 49.3329 29.102C50.2184 29.4658 51.0229 30.0016 51.6998 30.6785C52.3767 31.3554 52.9125 32.1599 53.2762 33.0453C53.64 33.9308 53.8244 34.8796 53.8188 35.8369" fill="white"/>
</svg>
